<svg id="svg" version="1.1" xmlns="http://www.w3.org/2000/svg" xmlns:xlink="http://www.w3.org/1999/xlink" width="400" height="400" viewBox="0, 0, 400,400"><g id="svgg"><path id="path0" d="M26.613 0.293 C 25.960 0.391,24.942 0.814,24.351 1.235 C 23.760 1.656,23.079 2.000,22.838 2.000 C 22.597 2.000,22.400 2.180,22.400 2.400 C 22.400 2.620,22.127 2.800,21.793 2.800 C 21.001 2.800,16.000 7.801,16.000 8.593 C 16.000 8.927,15.820 9.200,15.600 9.200 C 15.380 9.200,15.200 9.470,15.200 9.800 C 15.200 10.130,15.056 10.400,14.880 10.400 C 14.506 10.400,13.600 12.754,13.600 13.728 C 13.600 14.098,13.420 14.400,13.200 14.400 C 12.934 14.400,12.800 67.667,12.800 173.400 C 12.800 279.133,12.934 332.400,13.200 332.400 C 13.420 332.400,13.600 332.940,13.600 333.600 C 13.600 334.260,13.780 334.800,14.000 334.800 C 14.220 334.800,14.400 335.160,14.400 335.600 C 14.400 336.040,14.580 336.400,14.800 336.400 C 15.020 336.400,15.200 336.668,15.200 336.995 C 15.200 338.118,20.777 344.000,21.841 344.000 C 22.148 344.000,22.400 344.180,22.400 344.400 C 22.400 344.620,22.760 344.800,23.200 344.800 C 23.640 344.800,24.000 344.980,24.000 345.200 C 24.000 345.420,24.360 345.600,24.800 345.600 C 25.240 345.600,25.600 345.780,25.600 346.000 C 25.600 346.220,26.140 346.400,26.800 346.400 C 27.460 346.400,28.000 346.580,28.000 346.800 C 28.000 347.066,63.907 347.200,134.920 347.200 C 217.547 347.200,241.949 347.309,242.320 347.680 C 242.584 347.944,242.800 348.574,242.800 349.080 C 242.800 349.586,242.960 350.000,243.155 350.000 C 243.350 350.000,243.635 350.836,243.788 351.859 C 243.941 352.881,244.209 354.006,244.383 354.359 C 246.033 357.699,246.400 358.552,246.400 359.038 C 246.400 359.347,246.580 359.600,246.800 359.600 C 247.020 359.600,247.200 359.960,247.200 360.400 C 247.200 360.840,247.380 361.200,247.600 361.200 C 247.820 361.200,248.000 361.560,248.000 362.000 C 248.000 362.440,248.158 362.800,248.351 362.800 C 248.545 362.800,248.927 363.340,249.200 364.000 C 249.473 364.660,249.855 365.200,250.049 365.200 C 250.242 365.200,250.400 365.560,250.400 366.000 C 250.400 366.440,250.550 366.800,250.732 366.800 C 250.915 366.800,251.319 367.295,251.630 367.900 C 251.940 368.505,252.511 369.291,252.897 369.647 C 253.284 370.003,253.600 370.498,253.600 370.747 C 253.600 370.996,253.780 371.200,254.000 371.200 C 254.220 371.200,254.400 371.388,254.400 371.618 C 254.400 371.848,254.805 372.467,255.300 372.994 C 255.795 373.520,257.100 374.961,258.200 376.194 C 261.819 380.253,265.659 384.000,266.200 384.000 C 266.314 384.000,266.972 384.540,267.663 385.200 C 268.354 385.860,269.096 386.400,269.312 386.400 C 269.529 386.400,269.997 386.716,270.353 387.103 C 270.709 387.489,271.495 388.060,272.100 388.370 C 272.705 388.681,273.200 389.085,273.200 389.268 C 273.200 389.450,273.560 389.600,274.000 389.600 C 274.440 389.600,274.800 389.762,274.800 389.960 C 274.800 390.159,275.609 390.654,276.599 391.060 C 277.588 391.467,278.398 391.935,278.399 392.100 C 278.399 392.265,278.760 392.400,279.200 392.400 C 279.640 392.400,280.000 392.580,280.000 392.800 C 280.000 393.020,280.360 393.200,280.800 393.200 C 281.240 393.200,281.600 393.380,281.600 393.600 C 281.600 393.820,281.960 394.000,282.400 394.000 C 282.840 394.000,283.200 394.180,283.200 394.400 C 283.200 394.620,283.639 394.800,284.176 394.800 C 284.713 394.800,285.264 394.980,285.400 395.200 C 285.536 395.420,285.997 395.600,286.424 395.600 C 286.851 395.600,287.200 395.780,287.200 396.000 C 287.200 396.220,287.740 396.400,288.400 396.400 C 289.060 396.400,289.600 396.580,289.600 396.800 C 289.600 397.020,290.140 397.200,290.800 397.200 C 291.460 397.200,292.000 397.380,292.000 397.600 C 292.000 397.820,292.619 398.000,293.376 398.000 C 294.133 398.000,294.864 398.180,295.000 398.400 C 295.136 398.620,295.831 398.800,296.544 398.800 C 297.257 398.800,298.065 399.025,298.340 399.300 C 298.722 399.682,302.303 399.800,313.487 399.800 C 324.849 399.800,328.171 399.688,328.300 399.300 C 328.396 399.013,329.136 398.800,330.033 398.800 C 330.895 398.800,331.600 398.620,331.600 398.400 C 331.600 398.180,332.320 398.000,333.200 398.000 C 334.080 398.000,334.800 397.820,334.800 397.600 C 334.800 397.380,335.340 397.200,336.000 397.200 C 336.660 397.200,337.200 397.020,337.200 396.800 C 337.200 396.580,337.740 396.400,338.400 396.400 C 339.060 396.400,339.600 396.220,339.600 396.000 C 339.600 395.780,340.050 395.600,340.600 395.600 C 341.150 395.600,341.600 395.420,341.600 395.200 C 341.600 394.980,341.960 394.800,342.400 394.800 C 342.840 394.800,343.200 394.620,343.200 394.400 C 343.200 394.180,343.560 394.000,344.000 394.000 C 344.440 394.000,344.800 393.820,344.800 393.600 C 344.800 393.380,345.160 393.200,345.600 393.200 C 346.040 393.200,346.400 393.020,346.400 392.800 C 346.400 392.580,346.760 392.400,347.200 392.400 C 347.640 392.400,348.000 392.243,348.000 392.050 C 348.000 391.858,348.555 391.589,349.234 391.453 C 349.912 391.318,350.975 390.845,351.595 390.403 C 352.216 389.961,352.921 389.600,353.162 389.600 C 353.403 389.600,353.600 389.420,353.600 389.200 C 353.600 388.980,353.825 388.797,354.100 388.793 C 354.610 388.785,356.603 387.316,358.294 385.700 C 358.812 385.205,359.397 384.800,359.594 384.800 C 360.007 384.800,370.800 374.170,370.800 373.764 C 370.800 373.615,371.121 373.203,371.512 372.847 C 372.493 371.956,375.200 368.092,375.200 367.582 C 375.200 367.354,375.560 366.780,376.000 366.308 C 376.440 365.836,376.800 365.213,376.800 364.925 C 376.800 364.636,376.980 364.400,377.200 364.400 C 377.420 364.400,377.600 364.040,377.600 363.600 C 377.600 363.160,377.780 362.800,378.000 362.800 C 378.220 362.800,378.400 362.440,378.400 362.000 C 378.400 361.560,378.580 361.200,378.800 361.200 C 379.020 361.200,379.200 360.840,379.200 360.400 C 379.200 359.960,379.380 359.600,379.600 359.600 C 379.820 359.600,380.000 359.330,380.000 359.000 C 380.000 358.670,380.180 358.400,380.400 358.400 C 380.620 358.400,380.800 358.051,380.800 357.624 C 380.800 357.197,380.980 356.736,381.200 356.600 C 381.420 356.464,381.600 356.003,381.600 355.576 C 381.600 355.149,381.780 354.800,382.000 354.800 C 382.220 354.800,382.400 354.350,382.400 353.800 C 382.400 353.250,382.580 352.800,382.800 352.800 C 383.020 352.800,383.200 352.361,383.200 351.824 C 383.200 351.287,383.380 350.736,383.600 350.600 C 383.820 350.464,384.000 349.823,384.000 349.176 C 384.000 348.529,384.180 348.000,384.400 348.000 C 384.620 348.000,384.800 347.471,384.800 346.824 C 384.800 346.177,384.980 345.536,385.200 345.400 C 385.420 345.264,385.600 344.353,385.600 343.376 C 385.600 342.399,385.780 341.600,386.000 341.600 C 386.220 341.600,386.400 340.621,386.400 339.424 C 386.400 338.227,386.580 337.136,386.800 337.000 C 387.343 336.664,387.343 316.536,386.800 316.200 C 386.580 316.064,386.400 315.074,386.400 314.000 C 386.400 312.926,386.220 311.936,386.000 311.800 C 385.780 311.664,385.600 310.843,385.600 309.976 C 385.600 309.109,385.420 308.400,385.200 308.400 C 384.980 308.400,384.800 307.781,384.800 307.024 C 384.800 306.267,384.620 305.536,384.400 305.400 C 384.180 305.264,384.000 304.623,384.000 303.976 C 384.000 303.329,383.820 302.800,383.600 302.800 C 383.380 302.800,383.200 302.260,383.200 301.600 C 383.200 300.940,383.020 300.400,382.800 300.400 C 382.580 300.400,382.400 300.040,382.400 299.600 C 382.400 299.160,382.220 298.800,382.000 298.800 C 381.780 298.800,381.600 298.350,381.600 297.800 C 381.600 297.250,381.420 296.800,381.200 296.800 C 380.980 296.800,380.800 296.566,380.800 296.280 C 380.800 295.544,379.859 293.607,379.500 293.603 C 379.335 293.601,379.200 293.240,379.200 292.800 C 379.200 292.360,379.020 292.000,378.800 292.000 C 378.580 292.000,378.400 291.640,378.400 291.200 C 378.400 290.760,378.220 290.400,378.000 290.400 C 377.780 290.400,377.600 290.164,377.600 289.875 C 377.600 289.587,377.240 288.964,376.800 288.492 C 376.360 288.020,376.000 287.356,376.000 287.017 C 376.000 286.678,375.865 286.396,375.700 286.392 C 375.535 286.388,374.868 285.488,374.217 284.392 C 373.567 283.296,372.892 282.400,372.717 282.400 C 372.543 282.400,372.400 282.175,372.400 281.899 C 372.400 281.624,371.455 280.377,370.300 279.127 C 369.145 277.878,367.660 276.249,367.000 275.507 C 366.340 274.765,365.170 273.720,364.400 273.185 C 363.630 272.651,362.415 271.631,361.700 270.920 L 360.400 269.627 360.400 142.013 C 360.400 57.204,360.266 14.400,360.000 14.400 C 359.780 14.400,359.600 13.961,359.600 13.424 C 359.600 12.887,359.440 12.349,359.245 12.228 C 359.050 12.107,358.772 11.377,358.627 10.604 C 358.482 9.832,358.204 9.200,358.009 9.200 C 357.814 9.200,357.544 8.853,357.409 8.429 C 357.074 7.372,352.504 2.800,351.783 2.800 C 351.462 2.800,351.200 2.620,351.200 2.400 C 351.200 2.180,350.840 2.000,350.400 2.000 C 349.960 2.000,349.600 1.820,349.600 1.600 C 349.600 1.380,349.255 1.200,348.833 1.200 C 348.412 1.200,347.992 0.975,347.900 0.700 C 347.738 0.215,29.843 -0.187,26.613 0.293 M343.659 14.351 C 347.370 16.705,346.985 2.756,347.110 139.400 C 347.171 205.620,347.124 260.199,347.006 260.686 C 346.757 261.714,346.633 261.692,342.300 259.841 C 341.475 259.488,340.215 258.951,339.500 258.647 C 337.847 257.944,336.224 257.402,334.200 256.879 C 330.142 255.831,328.936 255.492,328.081 255.158 C 327.576 254.961,326.405 254.800,325.479 254.800 C 324.552 254.800,323.166 254.609,322.397 254.376 C 321.629 254.142,317.527 253.945,313.281 253.936 C 306.151 253.922,302.744 254.230,298.600 255.266 C 297.720 255.486,296.280 255.844,295.400 256.061 C 293.322 256.574,288.824 257.946,287.800 258.380 C 282.151 260.771,279.896 261.872,276.200 264.043 C 267.053 269.415,258.872 277.178,252.730 286.312 C 250.026 290.335,245.600 298.649,245.600 299.707 C 245.600 300.000,245.455 300.411,245.277 300.620 C 244.936 301.022,243.591 305.047,242.845 307.900 C 241.774 311.992,241.614 312.770,241.219 315.800 C 240.412 321.987,240.143 326.629,240.420 329.597 C 240.574 331.246,240.613 332.822,240.506 333.100 C 240.350 333.506,219.697 333.586,135.593 333.503 L 30.874 333.400 29.337 332.164 C 28.492 331.484,27.530 330.404,27.200 329.764 C 26.426 328.263,26.040 20.929,26.809 18.268 C 27.341 16.426,28.959 14.516,30.600 13.794 C 31.587 13.359,59.307 13.259,186.822 13.233 L 341.843 13.200 343.659 14.351 M73.600 126.796 L 73.600 199.993 93.500 200.096 L 113.400 200.200 113.505 213.295 L 113.611 226.389 126.705 226.495 L 139.800 226.600 139.905 239.694 L 140.011 252.787 140.905 253.003 C 141.397 253.122,162.320 253.170,187.400 253.110 L 233.000 253.000 233.200 239.800 L 233.400 226.600 246.700 226.495 L 260.000 226.389 260.000 213.198 L 260.000 200.007 279.900 199.904 L 299.800 199.800 299.800 126.800 L 299.800 53.800 186.700 53.699 L 73.600 53.599 73.600 126.796 M100.097 89.700 L 100.200 113.000 106.697 113.110 L 113.194 113.220 113.297 89.910 L 113.400 66.600 120.000 66.600 L 126.600 66.600 126.703 89.900 L 126.806 113.200 133.203 113.200 L 139.600 113.200 139.600 90.433 C 139.600 77.911,139.709 67.381,139.843 67.033 C 140.207 66.082,152.993 66.082,153.357 67.033 C 153.491 67.381,153.600 77.911,153.600 90.433 L 153.600 113.200 159.997 113.200 L 166.394 113.200 166.497 89.900 L 166.600 66.600 172.946 66.490 C 177.287 66.414,179.468 66.524,179.846 66.839 C 180.306 67.220,180.400 71.194,180.400 90.259 L 180.400 113.220 186.700 113.110 L 193.000 113.000 193.200 89.800 L 193.400 66.600 200.000 66.600 L 206.600 66.600 206.800 89.800 L 207.000 113.000 213.300 113.110 L 219.600 113.220 219.600 90.259 C 219.600 71.194,219.694 67.220,220.154 66.839 C 220.532 66.524,222.713 66.414,227.054 66.490 L 233.400 66.600 233.503 89.900 L 233.606 113.200 240.003 113.200 L 246.400 113.200 246.406 90.300 C 246.409 77.705,246.558 67.170,246.736 66.890 C 246.982 66.502,248.642 66.406,253.630 66.490 L 260.200 66.600 260.303 89.900 L 260.406 113.200 266.800 113.200 L 273.194 113.200 273.297 89.900 L 273.400 66.600 280.100 66.490 L 286.800 66.381 286.800 126.587 L 286.800 186.793 266.900 186.896 L 247.000 187.000 246.800 200.200 L 246.600 213.400 233.505 213.505 L 220.411 213.611 220.305 226.705 L 220.200 239.800 186.705 239.902 L 153.211 240.005 153.105 226.902 L 153.000 213.800 139.800 213.600 L 126.600 213.400 126.495 200.104 L 126.389 186.807 106.495 186.704 L 86.600 186.600 86.490 127.400 C 86.430 94.840,86.479 67.795,86.598 67.300 C 86.812 66.412,86.902 66.400,93.404 66.400 L 99.994 66.400 100.097 89.700 M319.200 267.020 C 342.362 268.747,363.889 286.314,370.886 309.200 C 373.844 318.874,374.289 331.498,371.979 340.200 C 371.746 341.080,371.385 342.472,371.177 343.293 C 370.190 347.192,367.629 353.009,364.878 357.600 C 356.334 371.859,340.803 382.866,325.400 385.579 C 323.860 385.850,321.845 386.236,320.923 386.436 C 320.000 386.636,316.615 386.800,313.400 386.800 C 310.185 386.800,306.800 386.636,305.877 386.436 C 304.955 386.236,302.940 385.850,301.400 385.579 C 271.594 380.329,249.749 349.913,253.789 319.285 C 255.491 306.377,262.139 292.325,269.785 285.469 C 270.233 285.068,271.590 283.799,272.800 282.651 C 274.010 281.503,275.630 280.126,276.400 279.592 C 277.170 279.058,278.107 278.341,278.482 277.998 C 285.117 271.929,304.817 265.694,314.400 266.630 C 315.170 266.706,317.330 266.881,319.200 267.020 M53.776 294.118 C 53.667 294.404,53.627 297.239,53.689 300.418 L 53.800 306.200 120.100 306.301 L 186.400 306.402 186.400 300.001 L 186.400 293.600 120.187 293.600 C 66.333 293.600,53.938 293.697,53.776 294.118 M200.176 294.118 C 200.067 294.404,200.027 297.239,200.089 300.418 L 200.200 306.200 213.300 306.305 L 226.400 306.411 226.400 300.005 L 226.400 293.600 213.387 293.600 C 203.100 293.600,200.333 293.709,200.176 294.118 M346.800 297.992 C 346.030 298.407,335.321 308.840,323.001 321.174 C 310.682 333.508,300.341 343.600,300.020 343.600 C 299.700 343.600,295.470 339.667,290.619 334.861 C 279.993 324.332,278.155 323.493,274.076 327.314 C 269.678 331.434,270.739 333.392,285.090 347.635 C 297.787 360.237,298.170 360.513,301.699 359.584 C 303.653 359.069,354.575 308.724,355.843 306.053 C 358.366 300.735,352.086 295.136,346.800 297.992 " stroke="none" fill="#251d24" fill-rule="evenodd"></path><path id="path1" d="M87.076 67.057 C 86.924 67.209,86.800 94.122,86.800 126.863 L 86.800 186.393 106.700 186.496 L 126.600 186.600 126.705 199.895 L 126.811 213.189 140.105 213.295 L 153.400 213.400 153.505 226.500 L 153.611 239.600 186.605 239.600 L 219.600 239.600 219.605 227.300 C 219.608 220.535,219.719 214.595,219.852 214.100 L 220.093 213.200 233.247 213.200 L 246.400 213.200 246.400 200.280 C 246.400 190.764,246.526 187.234,246.880 186.880 C 247.240 186.520,252.231 186.400,266.880 186.400 L 286.400 186.400 286.400 126.600 L 286.400 66.800 280.003 66.800 L 273.606 66.800 273.503 90.100 L 273.400 113.400 266.800 113.400 L 260.200 113.400 260.097 90.422 C 260.017 72.649,259.881 67.372,259.497 67.128 C 259.063 66.852,247.350 66.637,247.108 66.900 C 247.058 66.955,246.923 77.440,246.808 90.200 L 246.600 113.400 240.000 113.400 L 233.400 113.400 233.200 90.200 L 233.000 67.000 226.800 67.000 L 220.600 67.000 220.497 89.978 C 220.417 107.751,220.281 113.028,219.897 113.272 C 219.624 113.446,216.700 113.588,213.400 113.588 C 210.100 113.588,207.176 113.446,206.903 113.272 C 206.519 113.028,206.383 107.751,206.303 89.978 L 206.200 67.000 200.000 67.000 L 193.800 67.000 193.697 89.978 C 193.617 107.751,193.481 113.028,193.097 113.272 C 192.517 113.641,181.167 113.716,180.233 113.357 C 179.666 113.140,179.600 110.704,179.600 89.947 L 179.600 66.780 173.300 66.890 L 167.000 67.000 166.800 90.200 L 166.600 113.400 160.000 113.400 L 153.400 113.400 153.200 90.200 L 153.000 67.000 147.400 66.885 C 144.320 66.822,141.396 66.870,140.903 66.992 L 140.006 67.214 139.903 90.307 L 139.800 113.400 133.200 113.400 L 126.600 113.400 126.497 90.100 L 126.394 66.800 120.000 66.800 L 113.606 66.800 113.503 90.100 L 113.400 113.400 106.703 113.510 L 100.006 113.619 99.903 90.310 L 99.800 67.000 93.576 66.890 C 90.153 66.830,87.228 66.905,87.076 67.057 " stroke="none" fill="#ffe600" fill-rule="evenodd"></path><path id="path2" d="M31.293 14.267 C 29.448 14.920,28.065 16.491,27.280 18.828 C 26.564 20.959,26.584 325.686,27.300 328.092 C 28.051 330.615,30.234 332.614,32.593 332.937 C 33.648 333.082,80.641 333.200,137.021 333.200 L 239.530 333.200 239.749 326.900 C 239.985 320.121,240.496 314.819,241.175 312.100 C 241.409 311.165,241.772 309.725,241.982 308.900 C 242.192 308.075,242.476 306.860,242.612 306.200 C 242.857 305.016,243.082 304.363,243.920 302.400 C 244.155 301.850,244.583 300.680,244.871 299.800 C 246.325 295.363,251.621 286.313,256.000 280.782 C 263.191 271.700,275.370 262.588,285.400 258.785 C 285.840 258.618,286.830 258.206,287.600 257.870 C 289.626 256.984,293.208 255.880,297.600 254.785 C 302.787 253.493,311.994 252.766,317.241 253.234 C 324.530 253.885,327.941 254.472,333.500 256.035 C 334.215 256.236,335.388 256.552,336.106 256.737 C 337.354 257.058,339.813 258.052,341.295 258.834 C 341.677 259.035,342.262 259.200,342.595 259.200 C 342.928 259.200,343.200 259.359,343.200 259.553 C 343.200 259.748,343.605 259.995,344.100 260.102 C 344.595 260.209,345.315 260.430,345.700 260.591 C 346.416 260.892,346.850 24.195,346.142 19.033 C 345.836 16.795,344.242 15.008,341.800 14.165 C 339.274 13.292,33.764 13.393,31.293 14.267 M299.952 53.342 C 300.283 53.741,300.375 73.301,300.301 127.042 L 300.200 200.200 280.300 200.304 L 260.400 200.407 260.400 213.604 L 260.400 226.800 247.243 226.800 C 235.614 226.800,234.057 226.874,233.843 227.433 C 233.709 227.781,233.600 233.791,233.600 240.790 C 233.600 252.024,233.526 253.543,232.967 253.757 C 231.809 254.202,141.211 254.034,140.374 253.586 C 139.633 253.189,139.600 252.613,139.600 239.986 L 139.600 226.800 126.400 226.800 L 113.200 226.800 113.200 213.604 L 113.200 200.407 93.300 200.304 L 73.400 200.200 73.297 127.000 C 73.241 86.740,73.280 53.575,73.385 53.300 C 73.679 52.527,299.310 52.569,299.952 53.342 M186.709 300.100 L 186.818 307.200 120.052 307.200 C 59.539 307.200,53.263 307.141,53.043 306.567 C 52.628 305.486,52.775 294.395,53.215 293.573 C 53.623 292.810,54.704 292.799,120.115 292.899 L 186.600 293.000 186.709 300.100 M226.600 300.000 L 226.600 307.000 213.300 307.105 L 200.000 307.211 200.000 300.272 C 200.000 296.456,200.122 293.211,200.272 293.061 C 200.422 292.912,206.407 292.837,213.572 292.895 L 226.600 293.000 226.600 300.000 " stroke="none" fill="#e3e3e3" fill-rule="evenodd"></path><path id="path3" d="M346.997 140.400 C 346.997 206.730,347.044 233.865,347.100 200.700 C 347.156 167.535,347.156 113.265,347.100 80.100 C 347.044 46.935,346.997 74.070,346.997 140.400 M86.598 67.300 C 86.479 67.795,86.430 94.840,86.490 127.400 L 86.600 186.600 106.495 186.704 L 126.389 186.807 126.495 200.104 L 126.600 213.400 139.800 213.600 L 153.000 213.800 153.105 226.902 L 153.211 240.005 186.705 239.902 L 220.200 239.800 220.305 226.705 L 220.411 213.611 233.505 213.505 L 246.600 213.400 246.800 200.200 L 247.000 187.000 266.900 186.896 L 286.800 186.793 286.800 126.587 L 286.800 66.381 280.100 66.490 L 273.400 66.600 273.297 89.900 L 273.194 113.200 266.800 113.200 L 260.406 113.200 260.303 89.900 L 260.200 66.600 253.630 66.490 C 248.642 66.406,246.982 66.502,246.736 66.890 C 246.558 67.170,246.409 77.705,246.406 90.300 L 246.400 113.200 240.003 113.200 L 233.606 113.200 233.503 89.900 L 233.400 66.600 227.054 66.490 C 222.713 66.414,220.532 66.524,220.154 66.839 C 219.694 67.220,219.600 71.194,219.600 90.259 L 219.600 113.220 213.300 113.110 L 207.000 113.000 206.800 89.800 L 206.600 66.600 200.000 66.600 L 193.400 66.600 193.200 89.800 L 193.000 113.000 186.700 113.110 L 180.400 113.220 180.400 90.259 C 180.400 71.194,180.306 67.220,179.846 66.839 C 179.468 66.524,177.287 66.414,172.946 66.490 L 166.600 66.600 166.497 89.900 L 166.394 113.200 159.997 113.200 L 153.600 113.200 153.600 90.433 C 153.600 77.911,153.491 67.381,153.357 67.033 C 152.993 66.082,140.207 66.082,139.843 67.033 C 139.709 67.381,139.600 77.911,139.600 90.433 L 139.600 113.200 133.203 113.200 L 126.806 113.200 126.703 89.900 L 126.600 66.600 120.000 66.600 L 113.400 66.600 113.297 89.919 L 113.194 113.237 106.596 113.119 C 102.968 113.053,99.999 113.139,99.999 113.310 C 100.000 113.480,103.015 113.570,106.700 113.510 L 113.400 113.400 113.503 90.100 L 113.606 66.800 120.000 66.800 L 126.394 66.800 126.497 90.100 L 126.600 113.400 133.200 113.400 L 139.800 113.400 139.903 90.307 L 140.006 67.214 140.903 66.992 C 141.396 66.870,144.320 66.822,147.400 66.885 L 153.000 67.000 153.200 90.200 L 153.400 113.400 160.000 113.400 L 166.600 113.400 166.800 90.200 L 167.000 67.000 173.300 66.890 L 179.600 66.780 179.600 89.947 C 179.600 110.704,179.666 113.140,180.233 113.357 C 181.167 113.716,192.517 113.641,193.097 113.272 C 193.481 113.028,193.617 107.751,193.697 89.978 L 193.800 67.000 200.000 67.000 L 206.200 67.000 206.303 89.978 C 206.383 107.751,206.519 113.028,206.903 113.272 C 207.551 113.684,219.249 113.684,219.897 113.272 C 220.281 113.028,220.417 107.751,220.497 89.978 L 220.600 67.000 226.800 67.000 L 233.000 67.000 233.200 90.200 L 233.400 113.400 240.000 113.400 L 246.600 113.400 246.808 90.200 C 246.923 77.440,247.058 66.955,247.108 66.900 C 247.350 66.637,259.063 66.852,259.497 67.128 C 259.881 67.372,260.017 72.649,260.097 90.422 L 260.200 113.400 266.800 113.400 L 273.400 113.400 273.503 90.100 L 273.606 66.800 280.003 66.800 L 286.400 66.800 286.400 126.600 L 286.400 186.400 266.880 186.400 C 252.231 186.400,247.240 186.520,246.880 186.880 C 246.526 187.234,246.400 190.764,246.400 200.280 L 246.400 213.200 233.247 213.200 L 220.093 213.200 219.852 214.100 C 219.719 214.595,219.608 220.535,219.605 227.300 L 219.600 239.600 186.605 239.600 L 153.611 239.600 153.505 226.500 L 153.400 213.400 140.105 213.295 L 126.811 213.189 126.705 199.895 L 126.600 186.600 106.699 186.496 L 86.797 186.393 86.899 126.696 L 87.000 67.000 93.500 67.000 C 97.075 67.000,100.000 66.865,100.000 66.700 C 99.999 65.801,86.817 66.391,86.598 67.300 M315.700 253.876 C 316.085 253.976,316.715 253.976,317.100 253.876 C 317.485 253.775,317.170 253.693,316.400 253.693 C 315.630 253.693,315.315 253.775,315.700 253.876 M309.200 266.816 C 298.080 267.761,284.116 272.844,278.482 277.998 C 278.107 278.341,277.170 279.058,276.400 279.592 C 275.630 280.126,274.010 281.503,272.800 282.651 C 271.590 283.799,270.233 285.068,269.785 285.469 C 262.139 292.325,255.491 306.377,253.789 319.285 C 249.749 349.913,271.594 380.329,301.400 385.579 C 302.940 385.850,304.955 386.236,305.877 386.436 C 306.800 386.636,310.185 386.800,313.400 386.800 C 316.615 386.800,320.000 386.636,320.923 386.436 C 321.845 386.236,323.860 385.850,325.400 385.579 C 344.071 382.290,361.785 367.498,369.205 349.000 C 370.102 346.764,370.837 344.634,371.177 343.293 C 371.385 342.472,371.746 341.080,371.979 340.200 C 374.289 331.498,373.844 318.874,370.886 309.200 C 363.889 286.314,342.362 268.747,319.200 267.020 C 317.330 266.881,315.170 266.706,314.400 266.630 C 313.630 266.555,311.290 266.639,309.200 266.816 M53.467 293.867 C 53.097 294.236,53.129 305.909,53.500 306.138 C 53.665 306.240,53.800 303.461,53.800 299.962 C 53.800 296.463,53.785 293.600,53.767 293.600 C 53.748 293.600,53.613 293.720,53.467 293.867 M186.561 300.000 C 186.561 303.410,186.622 304.805,186.697 303.100 C 186.772 301.395,186.772 298.605,186.697 296.900 C 186.622 295.195,186.561 296.590,186.561 300.000 M353.204 298.100 C 356.054 300.040,357.141 303.317,355.843 306.053 C 354.575 308.724,303.653 359.069,301.699 359.584 C 298.170 360.513,297.787 360.237,285.090 347.635 C 270.739 333.392,269.678 331.434,274.076 327.314 C 278.155 323.493,279.993 324.332,290.619 334.861 C 295.470 339.667,299.700 343.600,300.020 343.600 C 300.341 343.600,310.682 333.508,323.001 321.174 C 348.759 295.385,348.974 295.221,353.204 298.100 M200.345 306.506 C 200.514 306.674,206.490 306.764,213.626 306.705 L 226.600 306.599 213.320 306.400 C 206.015 306.290,200.177 306.338,200.345 306.506 M87.100 306.700 C 105.195 306.758,134.805 306.758,152.900 306.700 C 170.995 306.642,156.190 306.595,120.000 306.595 C 83.810 306.595,69.005 306.642,87.100 306.700 " stroke="none" fill="#70a64a" fill-rule="evenodd"></path><path id="path4" d="M30.496 14.043 C 28.464 15.050,27.402 16.430,26.812 18.828 C 25.910 22.497,26.451 327.899,27.363 329.736 C 27.782 330.580,28.849 331.750,29.733 332.336 L 31.342 333.400 135.771 333.400 L 240.200 333.400 240.098 330.400 C 239.706 318.933,242.737 304.404,247.471 295.060 C 248.012 293.993,248.372 293.039,248.272 292.939 C 248.067 292.734,245.553 297.857,244.807 300.000 C 244.334 301.359,243.998 302.232,243.230 304.100 C 243.027 304.595,242.749 305.540,242.612 306.200 C 242.476 306.860,242.200 308.030,242.000 308.800 C 240.989 312.692,240.719 314.073,240.360 317.200 C 240.144 319.070,239.870 323.435,239.749 326.900 L 239.530 333.200 137.021 333.200 C 80.641 333.200,33.648 333.082,32.593 332.937 C 30.234 332.614,28.051 330.615,27.300 328.092 C 26.584 325.686,26.564 20.959,27.280 18.828 C 28.099 16.392,29.427 14.934,31.460 14.241 C 34.122 13.334,339.178 13.259,341.800 14.165 C 344.242 15.008,345.836 16.795,346.142 19.033 C 346.850 24.195,346.416 260.892,345.700 260.591 C 345.315 260.430,344.595 260.209,344.100 260.102 C 343.605 259.995,343.200 259.748,343.200 259.553 C 343.200 259.359,342.928 259.200,342.595 259.200 C 342.262 259.200,341.677 259.035,341.295 258.834 C 339.768 258.028,337.338 257.054,336.006 256.714 C 335.233 256.517,334.060 256.201,333.400 256.012 C 321.627 252.649,307.825 252.190,297.500 254.818 C 292.597 256.066,289.645 256.976,287.600 257.870 C 286.830 258.206,285.840 258.618,285.400 258.785 C 273.425 263.325,261.100 273.304,252.708 285.254 C 250.320 288.653,248.307 292.040,248.536 292.270 C 248.631 292.364,249.115 291.758,249.613 290.921 C 252.689 285.743,255.710 281.612,259.061 278.000 C 259.980 277.010,261.242 275.647,261.866 274.971 C 270.886 265.197,286.025 257.459,302.000 254.458 C 309.662 253.019,323.080 253.719,331.400 255.992 C 333.160 256.472,335.050 256.967,335.600 257.090 C 336.150 257.214,338.648 258.189,341.150 259.257 C 343.653 260.326,345.949 261.200,346.253 261.200 C 346.722 261.200,346.790 242.795,346.703 139.437 L 346.600 17.674 345.364 16.137 C 344.684 15.292,343.604 14.330,342.964 14.000 C 341.936 13.470,323.684 13.388,187.000 13.299 L 32.200 13.199 30.496 14.043 M73.385 53.300 C 73.280 53.575,73.241 86.740,73.297 127.000 L 73.400 200.200 93.300 200.206 L 113.200 200.211 93.400 200.102 L 73.600 199.993 73.600 126.796 L 73.600 53.600 186.800 53.600 L 300.000 53.600 300.000 126.800 L 300.000 200.000 280.000 200.000 L 260.000 200.000 260.000 213.200 L 260.000 226.400 247.100 226.406 C 240.005 226.409,233.978 226.554,233.706 226.726 C 233.333 226.963,233.185 230.247,233.106 240.020 L 233.000 253.000 186.600 253.000 L 140.200 253.000 140.000 239.800 L 139.800 226.600 126.706 226.495 L 113.611 226.389 113.500 213.495 L 113.389 200.600 113.294 213.700 L 113.200 226.800 126.400 226.800 L 139.600 226.800 139.600 239.986 C 139.600 252.613,139.633 253.189,140.374 253.586 C 141.211 254.034,231.809 254.202,232.967 253.757 C 233.526 253.543,233.600 252.024,233.600 240.790 C 233.600 233.791,233.709 227.781,233.843 227.433 C 234.057 226.874,235.614 226.800,247.243 226.800 L 260.400 226.800 260.400 213.604 L 260.400 200.407 280.300 200.304 L 300.200 200.200 300.301 127.042 C 300.375 73.301,300.283 53.741,299.952 53.342 C 299.310 52.569,73.679 52.527,73.385 53.300 M53.215 293.573 C 52.775 294.395,52.628 305.486,53.043 306.567 C 53.409 307.522,186.800 307.540,186.800 306.586 C 186.800 306.103,186.635 306.060,186.026 306.386 C 184.798 307.043,54.766 306.956,53.865 306.297 C 53.259 305.854,53.191 305.086,53.289 299.797 L 53.400 293.800 120.100 293.800 C 164.389 293.800,186.755 293.666,186.667 293.400 C 186.371 292.514,53.690 292.685,53.215 293.573 M200.272 293.061 C 200.122 293.211,200.000 293.438,200.000 293.567 C 200.000 293.695,205.940 293.750,213.200 293.689 L 226.400 293.579 226.400 300.200 L 226.400 306.821 213.200 306.711 C 205.940 306.650,200.000 306.737,200.000 306.905 C 200.000 307.073,205.985 307.163,213.300 307.105 L 226.600 307.000 226.600 300.000 L 226.600 293.000 213.572 292.895 C 206.407 292.837,200.422 292.912,200.272 293.061 " stroke="none" fill="#929292" fill-rule="evenodd"></path></g></svg>