<svg id="svg" version="1.1" xmlns="http://www.w3.org/2000/svg" xmlns:xlink="http://www.w3.org/1999/xlink" width="400" height="400" viewBox="0, 0, 400,400"><g id="svgg"><path id="path0" d="M26.613 0.293 C 25.960 0.391,24.942 0.814,24.351 1.235 C 23.760 1.656,23.079 2.000,22.838 2.000 C 22.597 2.000,22.400 2.180,22.400 2.400 C 22.400 2.620,22.127 2.800,21.793 2.800 C 21.001 2.800,16.000 7.801,16.000 8.593 C 16.000 8.927,15.820 9.200,15.600 9.200 C 15.380 9.200,15.200 9.470,15.200 9.800 C 15.200 10.130,15.056 10.400,14.880 10.400 C 14.506 10.400,13.600 12.754,13.600 13.728 C 13.600 14.098,13.420 14.400,13.200 14.400 C 12.934 14.400,12.800 67.667,12.800 173.400 C 12.800 279.133,12.934 332.400,13.200 332.400 C 13.420 332.400,13.600 332.940,13.600 333.600 C 13.600 334.260,13.780 334.800,14.000 334.800 C 14.220 334.800,14.400 335.160,14.400 335.600 C 14.400 336.040,14.580 336.400,14.800 336.400 C 15.020 336.400,15.200 336.668,15.200 336.995 C 15.200 338.118,20.777 344.000,21.841 344.000 C 22.148 344.000,22.400 344.180,22.400 344.400 C 22.400 344.620,22.760 344.800,23.200 344.800 C 23.640 344.800,24.000 344.980,24.000 345.200 C 24.000 345.420,24.360 345.600,24.800 345.600 C 25.240 345.600,25.600 345.780,25.600 346.000 C 25.600 346.220,26.140 346.400,26.800 346.400 C 27.460 346.400,28.000 346.580,28.000 346.800 C 28.000 347.066,63.907 347.200,134.920 347.200 C 217.547 347.200,241.949 347.309,242.320 347.680 C 242.584 347.944,242.800 348.574,242.800 349.080 C 242.800 349.586,242.960 350.000,243.155 350.000 C 243.350 350.000,243.635 350.836,243.788 351.859 C 243.941 352.881,244.209 354.006,244.383 354.359 C 246.033 357.699,246.400 358.552,246.400 359.038 C 246.400 359.347,246.580 359.600,246.800 359.600 C 247.020 359.600,247.200 359.960,247.200 360.400 C 247.200 360.840,247.380 361.200,247.600 361.200 C 247.820 361.200,248.000 361.560,248.000 362.000 C 248.000 362.440,248.158 362.800,248.351 362.800 C 248.545 362.800,248.927 363.340,249.200 364.000 C 249.473 364.660,249.855 365.200,250.049 365.200 C 250.242 365.200,250.400 365.560,250.400 366.000 C 250.400 366.440,250.550 366.800,250.732 366.800 C 250.915 366.800,251.319 367.295,251.630 367.900 C 251.940 368.505,252.511 369.291,252.897 369.647 C 253.284 370.003,253.600 370.498,253.600 370.747 C 253.600 370.996,253.780 371.200,254.000 371.200 C 254.220 371.200,254.400 371.388,254.400 371.618 C 254.400 371.848,254.805 372.467,255.300 372.994 C 255.795 373.520,257.100 374.961,258.200 376.194 C 261.819 380.253,265.659 384.000,266.200 384.000 C 266.314 384.000,266.972 384.540,267.663 385.200 C 268.354 385.860,269.096 386.400,269.312 386.400 C 269.529 386.400,269.997 386.716,270.353 387.103 C 270.709 387.489,271.495 388.060,272.100 388.370 C 272.705 388.681,273.200 389.085,273.200 389.268 C 273.200 389.450,273.560 389.600,274.000 389.600 C 274.440 389.600,274.800 389.762,274.800 389.960 C 274.800 390.159,275.609 390.654,276.599 391.060 C 277.588 391.467,278.398 391.935,278.399 392.100 C 278.399 392.265,278.760 392.400,279.200 392.400 C 279.640 392.400,280.000 392.580,280.000 392.800 C 280.000 393.020,280.360 393.200,280.800 393.200 C 281.240 393.200,281.600 393.380,281.600 393.600 C 281.600 393.820,281.960 394.000,282.400 394.000 C 282.840 394.000,283.200 394.180,283.200 394.400 C 283.200 394.620,283.639 394.800,284.176 394.800 C 284.713 394.800,285.264 394.980,285.400 395.200 C 285.536 395.420,285.997 395.600,286.424 395.600 C 286.851 395.600,287.200 395.780,287.200 396.000 C 287.200 396.220,287.740 396.400,288.400 396.400 C 289.060 396.400,289.600 396.580,289.600 396.800 C 289.600 397.020,290.140 397.200,290.800 397.200 C 291.460 397.200,292.000 397.380,292.000 397.600 C 292.000 397.820,292.619 398.000,293.376 398.000 C 294.133 398.000,294.864 398.180,295.000 398.400 C 295.136 398.620,295.831 398.800,296.544 398.800 C 297.257 398.800,298.065 399.025,298.340 399.300 C 298.722 399.682,302.303 399.800,313.487 399.800 C 324.849 399.800,328.171 399.688,328.300 399.300 C 328.396 399.013,329.136 398.800,330.033 398.800 C 330.895 398.800,331.600 398.620,331.600 398.400 C 331.600 398.180,332.320 398.000,333.200 398.000 C 334.080 398.000,334.800 397.820,334.800 397.600 C 334.800 397.380,335.340 397.200,336.000 397.200 C 336.660 397.200,337.200 397.020,337.200 396.800 C 337.200 396.580,337.740 396.400,338.400 396.400 C 339.060 396.400,339.600 396.220,339.600 396.000 C 339.600 395.780,340.050 395.600,340.600 395.600 C 341.150 395.600,341.600 395.420,341.600 395.200 C 341.600 394.980,341.960 394.800,342.400 394.800 C 342.840 394.800,343.200 394.620,343.200 394.400 C 343.200 394.180,343.560 394.000,344.000 394.000 C 344.440 394.000,344.800 393.820,344.800 393.600 C 344.800 393.380,345.160 393.200,345.600 393.200 C 346.040 393.200,346.400 393.020,346.400 392.800 C 346.400 392.580,346.760 392.400,347.200 392.400 C 347.640 392.400,348.000 392.243,348.000 392.050 C 348.000 391.858,348.555 391.589,349.234 391.453 C 349.912 391.318,350.975 390.845,351.595 390.403 C 352.216 389.961,352.921 389.600,353.162 389.600 C 353.403 389.600,353.600 389.420,353.600 389.200 C 353.600 388.980,353.825 388.797,354.100 388.793 C 354.610 388.785,356.603 387.316,358.294 385.700 C 358.812 385.205,359.397 384.800,359.594 384.800 C 360.007 384.800,370.800 374.170,370.800 373.764 C 370.800 373.615,371.121 373.203,371.512 372.847 C 372.493 371.956,375.200 368.092,375.200 367.582 C 375.200 367.354,375.560 366.780,376.000 366.308 C 376.440 365.836,376.800 365.213,376.800 364.925 C 376.800 364.636,376.980 364.400,377.200 364.400 C 377.420 364.400,377.600 364.040,377.600 363.600 C 377.600 363.160,377.780 362.800,378.000 362.800 C 378.220 362.800,378.400 362.440,378.400 362.000 C 378.400 361.560,378.580 361.200,378.800 361.200 C 379.020 361.200,379.200 360.840,379.200 360.400 C 379.200 359.960,379.380 359.600,379.600 359.600 C 379.820 359.600,380.000 359.330,380.000 359.000 C 380.000 358.670,380.180 358.400,380.400 358.400 C 380.620 358.400,380.800 358.051,380.800 357.624 C 380.800 357.197,380.980 356.736,381.200 356.600 C 381.420 356.464,381.600 356.003,381.600 355.576 C 381.600 355.149,381.780 354.800,382.000 354.800 C 382.220 354.800,382.400 354.350,382.400 353.800 C 382.400 353.250,382.580 352.800,382.800 352.800 C 383.020 352.800,383.200 352.361,383.200 351.824 C 383.200 351.287,383.380 350.736,383.600 350.600 C 383.820 350.464,384.000 349.823,384.000 349.176 C 384.000 348.529,384.180 348.000,384.400 348.000 C 384.620 348.000,384.800 347.471,384.800 346.824 C 384.800 346.177,384.980 345.536,385.200 345.400 C 385.420 345.264,385.600 344.353,385.600 343.376 C 385.600 342.399,385.780 341.600,386.000 341.600 C 386.220 341.600,386.400 340.621,386.400 339.424 C 386.400 338.227,386.580 337.136,386.800 337.000 C 387.343 336.664,387.343 316.536,386.800 316.200 C 386.580 316.064,386.400 315.074,386.400 314.000 C 386.400 312.926,386.220 311.936,386.000 311.800 C 385.780 311.664,385.600 310.843,385.600 309.976 C 385.600 309.109,385.420 308.400,385.200 308.400 C 384.980 308.400,384.800 307.781,384.800 307.024 C 384.800 306.267,384.620 305.536,384.400 305.400 C 384.180 305.264,384.000 304.623,384.000 303.976 C 384.000 303.329,383.820 302.800,383.600 302.800 C 383.380 302.800,383.200 302.260,383.200 301.600 C 383.200 300.940,383.020 300.400,382.800 300.400 C 382.580 300.400,382.400 300.040,382.400 299.600 C 382.400 299.160,382.220 298.800,382.000 298.800 C 381.780 298.800,381.600 298.350,381.600 297.800 C 381.600 297.250,381.420 296.800,381.200 296.800 C 380.980 296.800,380.800 296.566,380.800 296.280 C 380.800 295.544,379.859 293.607,379.500 293.603 C 379.335 293.601,379.200 293.240,379.200 292.800 C 379.200 292.360,379.020 292.000,378.800 292.000 C 378.580 292.000,378.400 291.640,378.400 291.200 C 378.400 290.760,378.220 290.400,378.000 290.400 C 377.780 290.400,377.600 290.164,377.600 289.875 C 377.600 289.587,377.240 288.964,376.800 288.492 C 376.360 288.020,376.000 287.356,376.000 287.017 C 376.000 286.678,375.865 286.396,375.700 286.392 C 375.535 286.388,374.868 285.488,374.217 284.392 C 373.567 283.296,372.892 282.400,372.717 282.400 C 372.543 282.400,372.400 282.175,372.400 281.899 C 372.400 281.624,371.455 280.377,370.300 279.127 C 369.145 277.878,367.660 276.249,367.000 275.507 C 366.340 274.765,365.170 273.720,364.400 273.185 C 363.630 272.651,362.415 271.631,361.700 270.920 L 360.400 269.627 360.400 142.013 C 360.400 57.204,360.266 14.400,360.000 14.400 C 359.780 14.400,359.600 13.961,359.600 13.424 C 359.600 12.887,359.440 12.349,359.245 12.228 C 359.050 12.107,358.772 11.377,358.627 10.604 C 358.482 9.832,358.204 9.200,358.009 9.200 C 357.814 9.200,357.544 8.853,357.409 8.429 C 357.074 7.372,352.504 2.800,351.783 2.800 C 351.462 2.800,351.200 2.620,351.200 2.400 C 351.200 2.180,350.840 2.000,350.400 2.000 C 349.960 2.000,349.600 1.820,349.600 1.600 C 349.600 1.380,349.255 1.200,348.833 1.200 C 348.412 1.200,347.992 0.975,347.900 0.700 C 347.738 0.215,29.843 -0.187,26.613 0.293 M343.237 14.118 C 344.490 14.769,345.261 15.547,345.900 16.802 L 346.800 18.570 346.800 140.072 C 346.800 275.828,347.113 261.849,344.100 260.557 C 337.993 257.940,337.533 257.762,335.300 257.154 C 334.585 256.959,333.370 256.620,332.600 256.400 C 328.804 255.315,328.000 255.132,325.400 254.757 C 312.526 252.902,298.842 254.030,289.600 257.709 C 289.050 257.928,288.195 258.263,287.700 258.454 C 267.736 266.139,252.264 281.741,244.716 301.800 C 244.053 303.560,243.368 305.630,243.192 306.400 C 243.016 307.170,242.602 308.880,242.273 310.200 C 240.926 315.596,240.002 325.006,240.299 330.300 L 240.485 333.600 136.342 333.591 C 18.454 333.581,30.087 333.927,27.726 330.361 L 26.600 328.658 26.600 173.400 L 26.600 18.142 27.699 16.481 C 28.303 15.567,29.473 14.464,30.299 14.028 C 31.788 13.242,33.085 13.235,186.637 13.218 L 341.474 13.200 343.237 14.118 M73.600 126.796 L 73.600 199.993 93.500 200.096 L 113.400 200.200 113.505 213.295 L 113.611 226.389 126.705 226.495 L 139.800 226.600 140.000 239.800 L 140.200 253.000 186.600 253.000 L 233.000 253.000 233.200 239.800 L 233.400 226.600 246.700 226.495 L 260.000 226.389 260.000 213.198 L 260.000 200.007 279.900 199.904 L 299.800 199.800 299.800 126.800 L 299.800 53.800 186.700 53.699 L 73.600 53.599 73.600 126.796 M99.903 89.900 L 100.006 113.200 106.600 113.200 L 113.194 113.200 113.297 89.900 L 113.400 66.600 120.000 66.600 L 126.600 66.600 126.703 89.910 L 126.806 113.220 133.303 113.110 L 139.800 113.000 140.000 89.800 L 140.200 66.600 146.397 66.489 C 151.874 66.391,152.653 66.458,153.097 67.066 C 153.487 67.598,153.600 72.865,153.600 90.476 L 153.600 113.200 160.000 113.200 L 166.400 113.200 166.400 90.249 C 166.400 71.186,166.494 67.220,166.954 66.838 C 167.332 66.525,169.462 66.414,173.654 66.489 L 179.800 66.600 180.000 89.800 L 180.200 113.000 186.700 113.110 L 193.200 113.220 193.200 90.018 L 193.200 66.815 194.100 66.593 C 194.595 66.470,197.610 66.422,200.800 66.485 L 206.600 66.600 206.800 89.800 L 207.000 113.000 213.400 113.000 L 219.800 113.000 220.000 89.800 L 220.200 66.600 226.000 66.485 C 229.190 66.422,232.205 66.470,232.700 66.593 L 233.600 66.815 233.600 90.018 L 233.600 113.220 240.100 113.110 L 246.600 113.000 246.800 89.800 L 247.000 66.600 253.370 66.489 C 258.198 66.406,259.818 66.503,260.064 66.889 C 260.242 67.170,260.391 77.705,260.394 90.300 L 260.400 113.200 266.797 113.200 L 273.194 113.200 273.297 89.900 L 273.400 66.600 280.000 66.600 L 286.600 66.600 286.701 126.696 L 286.803 186.793 266.901 186.896 L 247.000 187.000 246.800 200.200 L 246.600 213.400 233.505 213.505 L 220.411 213.611 220.305 226.705 L 220.200 239.800 186.700 239.902 L 153.200 240.005 153.200 226.808 L 153.200 213.611 139.900 213.505 L 126.600 213.400 126.495 200.104 L 126.389 186.807 106.495 186.704 L 86.600 186.600 86.487 127.800 C 86.424 95.460,86.478 68.411,86.607 67.690 L 86.840 66.380 93.320 66.490 L 99.800 66.600 99.903 89.900 M323.355 267.639 C 367.392 276.412,387.687 324.821,362.496 361.002 C 340.560 392.509,293.174 395.434,268.800 366.785 C 267.810 365.621,266.528 364.114,265.952 363.435 C 262.780 359.699,257.960 350.497,256.400 345.200 C 255.914 343.550,255.366 341.750,255.181 341.200 C 249.529 324.369,256.288 299.421,270.326 285.294 C 275.307 280.282,285.514 272.800,287.371 272.800 C 287.486 272.800,288.709 272.292,290.090 271.670 C 295.613 269.185,301.525 267.671,308.200 267.032 C 310.797 266.783,321.138 267.198,323.355 267.639 M53.867 293.867 C 53.720 294.013,53.600 296.893,53.600 300.267 L 53.600 306.400 120.000 306.400 L 186.400 306.400 186.400 300.000 L 186.400 293.600 120.267 293.600 C 83.893 293.600,54.013 293.720,53.867 293.867 M200.176 294.118 C 200.067 294.404,200.027 297.239,200.089 300.418 L 200.200 306.200 213.300 306.305 L 226.400 306.411 226.400 300.005 L 226.400 293.600 213.387 293.600 C 203.100 293.600,200.333 293.709,200.176 294.118 M285.165 293.965 C 281.338 295.189,279.425 299.293,280.965 302.978 C 281.300 303.780,286.023 308.845,292.565 315.419 C 298.634 321.518,303.600 326.627,303.600 326.774 C 303.600 326.920,298.738 331.891,292.796 337.820 C 278.675 351.909,277.489 354.593,283.569 358.690 C 287.628 361.426,289.001 360.580,302.484 347.035 C 308.087 341.406,312.959 336.800,313.312 336.800 C 313.664 336.800,318.598 341.456,324.276 347.148 C 336.023 358.922,336.862 359.600,339.676 359.600 C 343.597 359.600,346.133 357.103,346.133 353.244 C 346.133 350.040,345.511 349.255,333.424 337.220 C 327.801 331.622,323.200 326.872,323.200 326.665 C 323.200 326.459,327.894 321.605,333.630 315.878 C 346.375 303.157,346.080 303.523,346.080 300.428 C 346.080 295.410,341.190 292.334,336.800 294.590 C 336.030 294.986,330.486 300.190,324.479 306.155 C 318.473 312.120,313.511 317.042,313.453 317.093 C 313.395 317.144,308.769 312.591,303.174 306.976 C 290.127 293.883,288.683 292.839,285.165 293.965 " stroke="none" fill="#251d24" fill-rule="evenodd"></path><path id="path1" d="M87.076 67.057 C 86.924 67.209,86.800 94.122,86.800 126.863 L 86.800 186.393 106.700 186.496 L 126.600 186.600 126.705 199.895 L 126.811 213.189 140.105 213.295 L 153.400 213.400 153.505 226.500 L 153.611 239.600 186.605 239.600 L 219.600 239.600 219.600 227.033 C 219.600 220.121,219.709 214.181,219.843 213.833 C 220.057 213.274,221.614 213.200,233.243 213.200 L 246.400 213.200 246.400 200.280 C 246.400 190.764,246.526 187.234,246.880 186.880 C 247.240 186.520,252.231 186.400,266.880 186.400 L 286.400 186.400 286.400 126.600 L 286.400 66.800 280.003 66.800 L 273.606 66.800 273.503 90.100 L 273.400 113.400 266.800 113.400 L 260.200 113.400 260.097 90.422 C 260.017 72.649,259.881 67.372,259.497 67.128 C 259.063 66.852,247.350 66.637,247.108 66.900 C 247.058 66.955,246.923 77.440,246.808 90.200 L 246.600 113.400 240.000 113.400 L 233.400 113.400 233.200 90.200 L 233.000 67.000 226.800 67.000 L 220.600 67.000 220.497 89.978 C 220.417 107.751,220.281 113.028,219.897 113.272 C 219.624 113.446,216.700 113.588,213.400 113.588 C 210.100 113.588,207.176 113.446,206.903 113.272 C 206.519 113.028,206.383 107.751,206.303 89.978 L 206.200 67.000 200.000 67.000 L 193.800 67.000 193.600 90.200 L 193.400 113.400 187.400 113.515 C 184.100 113.578,180.996 113.530,180.503 113.408 L 179.606 113.186 179.503 90.093 L 179.400 67.000 174.000 66.885 C 171.030 66.821,168.196 66.870,167.703 66.992 L 166.806 67.214 166.703 90.307 L 166.600 113.400 160.000 113.400 L 153.400 113.400 153.200 90.200 L 153.000 67.000 147.400 66.885 C 144.320 66.822,141.396 66.870,140.903 66.992 L 140.006 67.214 139.903 90.307 L 139.800 113.400 133.200 113.400 L 126.600 113.400 126.497 90.100 L 126.394 66.800 120.000 66.800 L 113.606 66.800 113.503 90.100 L 113.400 113.400 106.703 113.510 L 100.006 113.619 99.903 90.310 L 99.800 67.000 93.576 66.890 C 90.153 66.830,87.228 66.905,87.076 67.057 " stroke="none" fill="#fada43" fill-rule="evenodd"></path><path id="path2" d="M308.200 267.032 C 301.525 267.671,295.613 269.185,290.090 271.670 C 288.709 272.292,287.486 272.800,287.371 272.800 C 285.514 272.800,275.307 280.282,270.326 285.294 C 256.288 299.421,249.529 324.369,255.181 341.200 C 255.366 341.750,255.914 343.550,256.400 345.200 C 257.960 350.497,262.780 359.699,265.952 363.435 C 266.528 364.114,267.810 365.621,268.800 366.785 C 276.405 375.723,289.265 383.044,301.800 385.570 C 343.304 393.933,380.452 356.682,372.174 315.000 C 367.351 290.713,348.789 272.706,323.355 267.639 C 321.138 267.198,310.797 266.783,308.200 267.032 M291.168 295.399 C 292.175 296.151,297.578 301.361,303.174 306.976 C 308.769 312.591,313.395 317.144,313.453 317.093 C 313.511 317.042,318.473 312.120,324.479 306.155 C 330.486 300.190,336.030 294.986,336.800 294.590 C 341.190 292.334,346.080 295.410,346.080 300.428 C 346.080 303.523,346.375 303.157,333.630 315.878 C 327.894 321.605,323.200 326.459,323.200 326.665 C 323.200 326.872,327.801 331.622,333.424 337.220 C 345.511 349.255,346.133 350.040,346.133 353.244 C 346.133 357.103,343.597 359.600,339.676 359.600 C 336.862 359.600,336.023 358.922,324.276 347.148 C 318.598 341.456,313.664 336.800,313.312 336.800 C 312.959 336.800,308.087 341.406,302.484 347.035 C 289.001 360.580,287.628 361.426,283.569 358.690 C 277.489 354.593,278.675 351.909,292.796 337.820 C 298.738 331.891,303.600 326.920,303.600 326.774 C 303.600 326.627,298.634 321.518,292.565 315.419 C 279.670 302.462,278.948 301.293,281.276 297.151 C 283.373 293.420,287.529 292.683,291.168 295.399 " stroke="none" fill="#fa5324" fill-rule="evenodd"></path><path id="path3" d="M31.293 14.267 C 29.448 14.920,28.065 16.491,27.280 18.828 C 26.564 20.959,26.584 325.686,27.300 328.092 C 28.051 330.615,30.234 332.614,32.593 332.937 C 33.648 333.082,80.641 333.200,137.021 333.200 L 239.530 333.200 239.749 326.900 C 239.985 320.121,240.496 314.819,241.175 312.100 C 241.409 311.165,241.772 309.725,241.982 308.900 C 242.192 308.075,242.476 306.860,242.612 306.200 C 242.857 305.016,243.082 304.363,243.920 302.400 C 244.155 301.850,244.583 300.680,244.871 299.800 C 246.325 295.363,251.621 286.313,256.000 280.782 C 263.191 271.700,275.370 262.588,285.400 258.785 C 285.840 258.618,286.830 258.206,287.600 257.870 C 289.626 256.984,293.208 255.880,297.600 254.785 C 306.624 252.537,321.911 252.716,330.500 255.171 C 331.325 255.407,332.630 255.780,333.400 256.000 C 334.170 256.220,335.388 256.552,336.106 256.737 C 337.354 257.058,339.813 258.052,341.295 258.834 C 341.677 259.035,342.262 259.200,342.595 259.200 C 342.928 259.200,343.200 259.359,343.200 259.553 C 343.200 259.748,343.605 259.995,344.100 260.102 C 344.595 260.209,345.315 260.430,345.700 260.591 C 346.416 260.892,346.850 24.195,346.142 19.033 C 345.836 16.795,344.242 15.008,341.800 14.165 C 339.274 13.292,33.764 13.393,31.293 14.267 M299.952 53.342 C 300.283 53.741,300.375 73.301,300.301 127.042 L 300.200 200.200 280.300 200.304 L 260.400 200.407 260.400 213.604 L 260.400 226.800 247.243 226.800 C 235.614 226.800,234.057 226.874,233.843 227.433 C 233.709 227.781,233.600 233.791,233.600 240.790 C 233.600 252.024,233.526 253.543,232.967 253.757 C 231.809 254.202,141.211 254.034,140.374 253.586 C 139.633 253.189,139.600 252.613,139.600 239.986 L 139.600 226.800 126.400 226.800 L 113.200 226.800 113.200 213.604 L 113.200 200.407 93.300 200.304 L 73.400 200.200 73.297 127.000 C 73.241 86.740,73.280 53.575,73.385 53.300 C 73.679 52.527,299.310 52.569,299.952 53.342 M186.709 300.100 L 186.818 307.200 120.052 307.200 C 59.539 307.200,53.263 307.141,53.043 306.567 C 52.628 305.486,52.775 294.395,53.215 293.573 C 53.623 292.810,54.704 292.799,120.115 292.899 L 186.600 293.000 186.709 300.100 M226.600 300.000 L 226.600 307.000 213.300 307.105 L 200.000 307.211 200.000 300.272 C 200.000 296.456,200.122 293.211,200.272 293.061 C 200.422 292.912,206.407 292.837,213.572 292.895 L 226.600 293.000 226.600 300.000 " stroke="none" fill="#e3e3e3" fill-rule="evenodd"></path><path id="path4" d="M30.299 14.028 C 29.473 14.464,28.303 15.567,27.699 16.481 L 26.600 18.142 26.600 173.400 L 26.600 328.658 27.726 330.361 C 30.087 333.927,18.454 333.581,136.342 333.591 L 240.485 333.600 240.299 330.300 C 240.002 325.006,240.926 315.596,242.273 310.200 C 242.602 308.880,243.016 307.170,243.192 306.400 C 247.104 289.281,263.757 269.592,281.400 261.228 C 284.825 259.604,285.617 259.255,287.700 258.454 C 288.195 258.263,289.050 257.928,289.600 257.709 C 298.842 254.030,312.526 252.902,325.400 254.757 C 328.000 255.132,328.804 255.315,332.600 256.400 C 333.370 256.620,334.585 256.959,335.300 257.154 C 337.533 257.762,337.993 257.940,344.100 260.557 C 347.113 261.849,346.800 275.828,346.800 140.072 L 346.800 18.570 345.900 16.802 C 345.261 15.547,344.490 14.769,343.237 14.118 L 341.474 13.200 186.637 13.218 C 33.085 13.235,31.788 13.242,30.299 14.028 M341.800 14.165 C 344.242 15.008,345.836 16.795,346.142 19.033 C 346.850 24.195,346.416 260.892,345.700 260.591 C 345.315 260.430,344.595 260.209,344.100 260.102 C 343.605 259.995,343.200 259.748,343.200 259.553 C 343.200 259.359,342.928 259.200,342.595 259.200 C 342.262 259.200,341.677 259.035,341.295 258.834 C 339.813 258.052,337.354 257.058,336.106 256.737 C 335.388 256.552,334.170 256.220,333.400 256.000 C 332.630 255.780,331.325 255.407,330.500 255.171 C 321.911 252.716,306.624 252.537,297.600 254.785 C 293.208 255.880,289.626 256.984,287.600 257.870 C 286.830 258.206,285.840 258.618,285.400 258.785 C 275.370 262.588,263.191 271.700,256.000 280.782 C 251.621 286.313,246.325 295.363,244.871 299.800 C 244.583 300.680,244.155 301.850,243.920 302.400 C 243.082 304.363,242.857 305.016,242.612 306.200 C 242.476 306.860,242.192 308.075,241.982 308.900 C 241.772 309.725,241.409 311.165,241.175 312.100 C 240.496 314.819,239.985 320.121,239.749 326.900 L 239.530 333.200 137.021 333.200 C 80.641 333.200,33.648 333.082,32.593 332.937 C 30.234 332.614,28.051 330.615,27.300 328.092 C 26.584 325.686,26.564 20.959,27.280 18.828 C 28.065 16.491,29.448 14.920,31.293 14.267 C 33.764 13.393,339.274 13.292,341.800 14.165 M73.385 53.300 C 73.280 53.575,73.241 86.740,73.297 127.000 L 73.400 200.200 93.300 200.304 L 113.200 200.407 113.200 213.604 L 113.200 226.800 126.400 226.800 L 139.600 226.800 139.600 239.986 C 139.600 252.613,139.633 253.189,140.374 253.586 C 141.211 254.034,231.809 254.202,232.967 253.757 C 233.526 253.543,233.600 252.024,233.600 240.790 C 233.600 233.791,233.709 227.781,233.843 227.433 C 234.057 226.874,235.614 226.800,247.243 226.800 L 260.400 226.800 260.400 213.604 L 260.400 200.407 280.300 200.304 L 300.200 200.200 300.301 127.042 C 300.375 73.301,300.283 53.741,299.952 53.342 C 299.310 52.569,73.679 52.527,73.385 53.300 M299.800 126.800 L 299.800 199.800 279.900 199.904 L 260.000 200.007 260.000 213.198 L 260.000 226.389 246.700 226.495 L 233.400 226.600 233.200 239.800 L 233.000 253.000 186.600 253.000 L 140.200 253.000 140.000 239.800 L 139.800 226.600 126.705 226.495 L 113.611 226.389 113.505 213.295 L 113.400 200.200 93.500 200.096 L 73.600 199.993 73.600 126.796 L 73.600 53.599 186.700 53.699 L 299.800 53.800 299.800 126.800 M86.800 66.700 C 86.800 66.865,89.753 67.000,93.362 67.000 C 96.971 67.000,99.840 66.865,99.738 66.700 C 99.636 66.535,96.683 66.400,93.176 66.400 C 89.669 66.400,86.800 66.535,86.800 66.700 M113.476 66.657 C 113.324 66.809,113.200 77.339,113.200 90.057 L 113.200 113.181 106.500 113.306 L 99.800 113.431 106.600 113.415 L 113.400 113.400 113.503 90.100 L 113.606 66.800 120.000 66.800 L 126.394 66.800 126.497 90.100 L 126.600 113.400 132.969 113.511 C 136.473 113.571,139.479 113.481,139.651 113.311 C 139.822 113.140,137.002 113.053,133.384 113.119 L 126.806 113.237 126.703 89.919 L 126.600 66.600 120.176 66.490 C 116.643 66.430,113.628 66.505,113.476 66.657 M140.261 66.700 C 140.159 66.865,143.011 67.000,146.599 67.000 C 150.187 67.000,153.039 66.865,152.938 66.700 C 152.836 66.535,149.984 66.400,146.600 66.400 C 143.216 66.400,140.364 66.535,140.261 66.700 M166.890 66.870 C 166.515 67.245,166.400 72.734,166.400 90.280 L 166.400 113.200 160.003 113.200 L 153.607 113.200 153.498 90.400 L 153.390 67.600 153.395 90.500 L 153.400 113.400 160.000 113.400 L 166.600 113.400 166.703 90.307 L 166.806 67.214 167.703 66.992 C 168.196 66.870,171.030 66.821,174.000 66.885 L 179.400 67.000 179.503 90.093 L 179.606 113.186 180.503 113.408 C 180.996 113.530,184.100 113.578,187.400 113.515 L 193.400 113.400 193.600 90.200 L 193.800 67.000 200.000 67.000 L 206.200 67.000 206.303 89.978 C 206.383 107.751,206.519 113.028,206.903 113.272 C 207.551 113.684,219.249 113.684,219.897 113.272 C 220.281 113.028,220.417 107.751,220.497 89.978 L 220.600 67.000 226.800 67.000 L 233.000 67.000 233.200 90.200 L 233.400 113.400 239.769 113.511 C 243.273 113.571,246.279 113.481,246.451 113.311 C 246.622 113.140,243.801 113.053,240.181 113.119 L 233.600 113.237 233.600 90.026 L 233.600 66.815 232.700 66.593 C 232.205 66.470,229.190 66.422,226.000 66.485 L 220.200 66.600 220.000 89.800 L 219.800 113.000 213.400 113.000 L 207.000 113.000 206.800 89.800 L 206.600 66.600 200.800 66.485 C 197.610 66.422,194.595 66.470,194.100 66.593 L 193.200 66.815 193.200 90.018 L 193.200 113.220 186.700 113.110 L 180.200 113.000 180.000 89.800 L 179.800 66.600 173.590 66.490 C 169.098 66.411,167.244 66.516,166.890 66.870 M246.984 66.827 C 246.839 67.061,246.828 67.361,246.960 67.493 C 247.092 67.625,247.200 67.523,247.200 67.267 C 247.200 66.726,258.660 66.596,259.497 67.128 C 259.881 67.372,260.017 72.649,260.097 90.422 L 260.200 113.400 266.800 113.400 L 273.400 113.400 273.503 90.100 L 273.606 66.800 280.003 66.800 L 286.400 66.800 286.400 126.600 L 286.400 186.400 266.880 186.400 C 252.231 186.400,247.240 186.520,246.880 186.880 C 246.526 187.234,246.400 190.764,246.400 200.280 L 246.400 213.200 233.243 213.200 C 221.614 213.200,220.057 213.274,219.843 213.833 C 219.709 214.181,219.600 220.121,219.600 227.033 L 219.600 239.600 186.605 239.600 L 153.611 239.600 153.505 226.500 L 153.400 213.400 140.105 213.295 L 126.811 213.189 126.705 199.895 L 126.600 186.600 106.701 186.496 L 86.803 186.393 86.699 126.896 L 86.596 67.400 86.598 127.000 L 86.600 186.600 106.495 186.704 L 126.389 186.807 126.495 200.104 L 126.600 213.400 139.900 213.505 L 153.200 213.611 153.200 226.808 L 153.200 240.005 186.700 239.902 L 220.200 239.800 220.305 226.705 L 220.411 213.611 233.505 213.505 L 246.600 213.400 246.800 200.200 L 247.000 187.000 266.901 186.896 L 286.803 186.793 286.701 126.696 L 286.600 66.600 280.000 66.600 L 273.400 66.600 273.297 89.900 L 273.194 113.200 266.797 113.200 L 260.400 113.200 260.400 90.433 C 260.400 77.911,260.291 67.381,260.157 67.033 C 259.861 66.261,247.453 66.067,246.984 66.827 M53.215 293.573 C 52.775 294.395,52.628 305.486,53.043 306.567 C 53.263 307.141,59.539 307.200,120.052 307.200 L 186.818 307.200 186.709 300.100 L 186.600 293.000 120.115 292.899 C 54.704 292.799,53.623 292.810,53.215 293.573 M200.272 293.061 C 200.122 293.211,200.000 293.438,200.000 293.567 C 200.000 293.695,205.940 293.750,213.200 293.689 L 226.400 293.579 226.400 300.000 L 226.400 306.421 213.200 306.311 C 202.773 306.223,200.000 306.306,200.000 306.705 C 200.000 307.105,202.795 307.189,213.300 307.105 L 226.600 307.000 226.600 300.000 L 226.600 293.000 213.572 292.895 C 206.407 292.837,200.422 292.912,200.272 293.061 M186.400 300.000 L 186.400 306.400 120.000 306.400 L 53.600 306.400 53.600 300.267 C 53.600 296.893,53.720 294.013,53.867 293.867 C 54.013 293.720,83.893 293.600,120.267 293.600 L 186.400 293.600 186.400 300.000 " stroke="none" fill="#929292" fill-rule="evenodd"></path></g></svg>